<?xml version="1.0" standalone="no"?>
<!DOCTYPE svg PUBLIC "-//W3C//DTD SVG 20010904//EN"
 "http://www.w3.org/TR/2001/REC-SVG-20010904/DTD/svg10.dtd">
<svg version="1.0" xmlns="http://www.w3.org/2000/svg"
 width="110.000000pt" height="110.000000pt" viewBox="0 0 110.000000 110.000000"
 preserveAspectRatio="xMidYMid meet">
<metadata>
Created by potrace 1.14, written by Peter Selinger 2001-2017
</metadata>
<g transform="translate(0.000000,110.000000) scale(0.100000,-0.100000)"
fill="#000000" stroke="none">
<path d="M326 853 c8 -49 14 -91 14 -95 0 -5 18 -8 41 -8 36 0 40 -2 37 -22
-3 -19 -13 -23 -83 -35 -126 -21 -264 -71 -303 -109 -28 -28 -32 -38 -32 -86
0 -30 6 -60 12 -67 10 -11 10 -14 1 -18 -9 -3 -13 -25 -13 -63 l0 -58 92 40
c124 53 128 57 128 133 0 33 -5 66 -11 72 -13 13 -5 18 44 27 l37 7 0 -50 c0
-27 -4 -51 -8 -53 -11 -4 -24 -78 -14 -78 4 0 23 4 42 9 19 5 52 11 73 14 37
6 37 5 37 -29 0 -33 -1 -34 -40 -34 -25 0 -40 -5 -40 -12 0 -7 -6 -52 -14
-100 l-13 -88 249 0 c159 0 248 4 248 10 0 6 -8 10 -19 10 -15 0 -20 14 -31
90 l-13 90 -38 0 c-38 0 -39 1 -39 35 0 19 1 35 3 35 9 0 124 -22 140 -26 16
-5 17 -1 11 33 -4 21 -11 40 -15 41 -5 2 -9 26 -9 54 l0 50 38 -7 c20 -4 38
-8 38 -8 1 -1 4 -26 8 -54 5 -36 3 -53 -4 -53 -7 0 -10 -15 -8 -36 3 -34 6
-37 68 -58 36 -13 84 -33 107 -45 53 -27 53 -27 53 7 0 71 -11 99 -45 115 -25
12 -32 21 -28 36 4 17 8 18 29 9 13 -6 26 -9 28 -7 2 2 6 28 8 58 l5 53 -63
29 c-74 34 -209 74 -279 84 -74 10 -85 15 -85 36 0 16 7 19 40 19 25 0 40 5
40 13 0 6 6 49 14 95 l13 82 -232 0 -232 0 13 -87z m94 -313 c0 -43 -3 -50
-20 -50 -17 0 -20 7 -20 50 0 43 3 50 20 50 17 0 20 -7 20 -50z m290 0 c0 -40
-3 -50 -16 -50 -13 0 -15 7 -11 35 3 19 2 35 -4 35 -5 0 -9 7 -9 15 0 8 9 15
20 15 17 0 20 -7 20 -50z m-590 1 c0 -5 -7 -11 -15 -15 -9 -3 -15 0 -15 9 0 8
7 15 15 15 8 0 15 -4 15 -9z m885 -1 c3 -5 -1 -10 -9 -10 -9 0 -16 5 -16 10 0
6 4 10 9 10 6 0 13 -4 16 -10z m-875 -100 c0 -5 -9 -14 -20 -20 -16 -8 -20 -8
-20 4 0 13 13 23 33 25 4 1 7 -3 7 -9z m880 -5 c7 -9 11 -18 8 -20 -9 -10 -38
7 -38 21 0 18 14 18 30 -1z"/>
</g>
</svg>
